<svg xmlns="http://www.w3.org/2000/svg" xmlns:xlink="http://www.w3.org/1999/xlink" preserveAspectRatio="xMaxYMax slice" viewBox="0 0 1000 727.273"><g transform="scale(1.3722126929674099)"><rect width="728.75" height="530" x="0" y="0" fill="#1c08fd"/><rect width="66.25" height="66.25" x="0" y="0" fill="#1c08fd"/><rect width="33.13" height="33.13" x="0" y="0" fill="#1a23ef"/><polygon fill="#2123ea" points="33.13 0 33.13 33.13 0 33.13"/><rect width="33.13" height="33.13" x="33.13" y="0" fill="#2954c6"/><polygon fill="#1a1ef2" points="33.13 0 66.26 0 33.13 33.13"/><rect width="33.13" height="33.13" x="0" y="33.13" fill="#2d68b8"/><polygon fill="#1a1ef2" points="0 33.13 33.13 33.13 33.13 66.26"/><rect width="33.13" height="33.13" x="33.13" y="33.13" fill="#1b13f7"/><polygon fill="#2953c6" points="33.13 33.13 66.26 66.26 33.13 66.26"/><rect width="66.25" height="66.25" x="66.25" y="0" fill="#1c08fd"/><rect width="33.13" height="33.13" x="66.25" y="0" fill="#2c61bc"/><path fill="#1931e8" d="M 66.25 33.13 A 33.13 33.13 0 0 1 99.38 0 L 99.38 8.2825 A 24.847500000000004 24.847500000000004 0 0 0 74.5325 33.13"/><rect width="33.13" height="33.13" x="99.38" y="0" fill="#3ab282"/><path fill="#3ab182" d="M 99.38 0 A 33.13 33.13 0 0 1 132.51 33.13 L 124.22749999999999 33.13 A 24.847500000000004 24.847500000000004 0 0 0 99.38 8.2825"/><rect width="33.13" height="33.13" x="66.25" y="33.13" fill="#2f73af"/><path fill="#2439da" d="M 66.25 33.13 A 33.13 33.13 0 0 0 99.38 66.26 L 99.38 57.977500000000006 A 24.847500000000004 24.847500000000004 0 0 1 74.5325 33.13"/><rect width="33.13" height="33.13" x="99.38" y="33.13" fill="#1c0bfc"/><path fill="#1c0dfa" d="M 99.38 66.26 A 33.13 33.13 0 0 0 132.51 33.13 L 124.22749999999999 33.13 A 24.847500000000004 24.847500000000004 0 0 1 99.38 57.977500000000006"/><rect width="66.25" height="66.25" x="132.5" y="0" fill="#192dea"/><path fill="#1c0dfa" d="M 132.5 66.25 A 66.25 66.25 0 0 1 198.75 0 L 132.5 66.25 A 66.25 66.25 0 0 0 198.75 0"/><rect width="66.25" height="66.25" x="198.75" y="0" fill="#183ee1"/><rect width="66.25" height="66.25" x="198.75" y="0" fill="#1b14f7"/><rect width="66.25" height="66.25" x="265" y="0" fill="#1b10f9"/><polygon fill="#1a1ef2" points="265 0 331.25 66.25 265 66.25"/><rect width="66.25" height="66.25" x="331.25" y="0" fill="#2438db"/><polygon fill="#232ee1" points="331.25 0 397.5 0 397.5 66.25"/><rect width="66.25" height="66.25" x="397.5" y="0" fill="#2539d9"/><rect width="66.25" height="66.25" x="397.5" y="0" fill="#1933e7"/><rect width="66.25" height="66.25" x="463.75" y="0" fill="#3bb87d"/><rect width="66.25" height="66.25" x="463.75" y="0" fill="#183fe1"/><rect width="66.25" height="66.25" x="530" y="0" fill="#1c08fd"/><rect width="33.13" height="33.13" x="530" y="0" fill="#1931e8"/><polygon fill="#3287a1" points="563.13 0 563.13 33.13 530 33.13"/><rect width="33.13" height="33.13" x="563.13" y="0" fill="#1c0afc"/><polygon fill="#1b12f8" points="563.13 0 596.26 0 563.13 33.13"/><rect width="33.13" height="33.13" x="530" y="33.13" fill="#253cd8"/><polygon fill="#3fd469" points="530 33.13 563.13 33.13 563.13 66.26"/><rect width="33.13" height="33.13" x="563.13" y="33.13" fill="#1b1cf3"/><polygon fill="#43e65c" points="563.13 33.13 596.26 66.26 563.13 66.26"/><rect width="66.25" height="66.25" x="596.25" y="0" fill="#1c08fd"/><rect width="33.13" height="33.13" x="596.25" y="0" fill="#1b1cf3"/><path fill="#1930e9" d="M 596.25 33.13 A 33.13 33.13 0 0 1 629.38 0 L 629.38 33.13"/><rect width="33.13" height="33.13" x="629.38" y="0" fill="#369b93"/><path fill="#1f17f2" d="M 629.38 0 A 33.13 33.13 0 0 1 662.51 33.13 L 629.38 33.13"/><rect width="33.13" height="33.13" x="596.25" y="33.13" fill="#38a988"/><path fill="#41db64" d="M 596.25 33.13 A 33.13 33.13 0 0 0 629.38 66.26 L 629.38 33.13"/><rect width="33.13" height="33.13" x="629.38" y="33.13" fill="#1b18f5"/><path fill="#46f750" d="M 629.38 66.26 A 33.13 33.13 0 0 0 662.51 33.13 L 629.38 33.13"/><rect width="66.25" height="66.25" x="662.5" y="0" fill="#1c08fd"/><rect width="33.13" height="33.13" x="662.5" y="0" fill="#348f9b"/><polygon fill="#192ceb" points="695.63 0 695.63 33.13 662.5 33.13"/><rect width="33.13" height="33.13" x="695.63" y="0" fill="#1c0ffa"/><polygon fill="#39ac86" points="695.63 0 728.76 0 695.63 33.13"/><rect width="33.13" height="33.13" x="662.5" y="33.13" fill="#2f77ac"/><polygon fill="#1a23ef" points="662.5 33.13 695.63 33.13 695.63 66.26"/><rect width="33.13" height="33.13" x="695.63" y="33.13" fill="#38ac86"/><polygon fill="#1f1cee" points="695.63 33.13 728.76 66.26 695.63 66.26"/><rect width="66.25" height="66.25" x="0" y="66.25" fill="#1c08fd"/><rect width="33.13" height="33.13" x="0" y="66.25" fill="#2437db"/><path fill="#349497" d="M 0 99.38 A 33.13 33.13 0 0 0 33.13 66.25 L 0 66.25"/><rect width="33.13" height="33.13" x="33.13" y="66.25" fill="#307ca9"/><path fill="#1b15f6" d="M 33.13 66.25 A 33.13 33.13 0 0 0 66.26 99.38 L 66.26 66.25"/><rect width="33.13" height="33.13" x="0" y="99.38" fill="#1c0cfb"/><path fill="#1a1ef2" d="M 0 99.38 A 33.13 33.13 0 0 1 33.13 132.51 L 0 132.51"/><rect width="33.13" height="33.13" x="33.13" y="99.38" fill="#38a988"/><path fill="#3fcf6d" d="M 33.13 132.51 A 33.13 33.13 0 0 1 66.26 99.38 L 66.26 132.51"/><rect width="66.25" height="66.25" x="66.25" y="66.25" fill="#1a29ec"/><path fill="#1936e6" d="M 66.25 132.5 A 66.25 66.25 0 0 0 132.5 66.25 L 66.25 66.25"/><rect width="66.25" height="66.25" x="132.5" y="66.25" fill="#1c08fd"/><rect width="33.13" height="33.13" x="132.5" y="66.25" fill="#2124e8"/><polygon fill="#192ceb" points="165.63 66.25 165.63 99.38 132.5 99.38"/><rect width="33.13" height="33.13" x="165.63" y="66.25" fill="#2e6fb3"/><polygon fill="#1c0cfb" points="165.63 66.25 198.76 66.25 165.63 99.38"/><rect width="33.13" height="33.13" x="132.5" y="99.38" fill="#37a58b"/><polygon fill="#1f1cef" points="132.5 99.38 165.63 99.38 165.63 132.51"/><rect width="33.13" height="33.13" x="165.63" y="99.38" fill="#42e35e"/><polygon fill="#1935e6" points="165.63 99.38 198.76 132.51 165.63 132.51"/><rect width="66.25" height="66.25" x="198.75" y="66.25" fill="#1e14f5"/><rect width="66.25" height="66.25" x="198.75" y="66.25" fill="#1938e5"/><rect width="66.25" height="66.25" x="265" y="66.25" fill="#1c08fd"/><rect width="33.13" height="33.13" x="265" y="66.25" fill="#2e70b2"/><path fill="#2438da" d="M 265 99.38 A 33.13 33.13 0 0 0 298.13 66.25 L 265 66.25"/><rect width="33.13" height="33.13" x="298.13" y="66.25" fill="#1a24ef"/><path fill="#1f1bef" d="M 298.13 66.25 A 33.13 33.13 0 0 0 331.26 99.38 L 331.26 66.25"/><rect width="33.13" height="33.13" x="265" y="99.38" fill="#1c0afc"/><path fill="#1936e6" d="M 265 99.38 A 33.13 33.13 0 0 1 298.13 132.51 L 265 132.51"/><rect width="33.13" height="33.13" x="298.13" y="99.38" fill="#2d68b8"/><path fill="#1b15f7" d="M 298.13 132.51 A 33.13 33.13 0 0 1 331.26 99.38 L 331.26 132.51"/><rect width="66.25" height="66.25" x="331.25" y="66.25" fill="#1c08fd"/><rect width="33.13" height="33.13" x="331.25" y="66.25" fill="#183de2"/><path fill="#307da8" d="M 331.25 66.25 A 33.13 33.13 0 0 1 364.38 99.38 L 331.25 99.38"/><rect width="33.13" height="33.13" x="364.38" y="66.25" fill="#183de2"/><path fill="#192fe9" d="M 364.38 99.38 A 33.13 33.13 0 0 1 397.51 66.25 L 397.51 99.38"/><rect width="33.13" height="33.13" x="331.25" y="99.38" fill="#1f18f2"/><path fill="#1c09fd" d="M 331.25 132.51 A 33.13 33.13 0 0 0 364.38 99.38 L 331.25 99.38"/><rect width="33.13" height="33.13" x="364.38" y="99.38" fill="#1c09fd"/><path fill="#1f16f3" d="M 364.38 99.38 A 33.13 33.13 0 0 0 397.51 132.51 L 397.51 99.38"/><rect width="66.25" height="66.25" x="397.5" y="66.25" fill="#1c08fd"/><rect width="33.13" height="33.13" x="397.5" y="66.25" fill="#37a18e"/><polygon fill="#1932e8" points="430.63 66.25 430.63 99.38 397.5 99.38"/><rect width="33.13" height="33.13" x="430.63" y="66.25" fill="#1a2aec"/><polygon fill="#192beb" points="430.63 66.25 463.76 99.38 430.63 99.38"/><rect width="33.13" height="33.13" x="397.5" y="99.38" fill="#2a5bc1"/><polygon fill="#192eea" points="397.5 99.38 430.63 99.38 430.63 132.51"/><rect width="33.13" height="33.13" x="430.63" y="99.38" fill="#1c0afc"/><polygon fill="#192beb" points="430.63 99.38 463.76 99.38 430.63 132.51"/><rect width="66.25" height="66.25" x="463.75" y="66.25" fill="#1c08fd"/><rect width="33.13" height="33.13" x="463.75" y="66.25" fill="#1b1cf3"/><path fill="#1937e5" d="M 463.75 99.38 A 33.13 33.13 0 0 0 496.88 66.25 L 463.75 66.25"/><rect width="33.13" height="33.13" x="496.88" y="66.25" fill="#1935e6"/><path fill="#2953c6" d="M 496.88 66.25 A 33.13 33.13 0 0 0 530.01 99.38 L 530.01 66.25"/><rect width="33.13" height="33.13" x="463.75" y="99.38" fill="#1b1af4"/><path fill="#1b1af4" d="M 463.75 99.38 A 33.13 33.13 0 0 1 496.88 132.51 L 463.75 132.51"/><rect width="33.13" height="33.13" x="496.88" y="99.38" fill="#43ea59"/><path fill="#2435dc" d="M 496.88 132.51 A 33.13 33.13 0 0 1 530.01 99.38 L 530.01 132.51"/><rect width="66.25" height="66.25" x="530" y="66.25" fill="#36a08f"/><path fill="#2c63bb" d="M 530 66.25 A 66.25 66.25 0 0 0 596.25 132.5 L 596.25 66.25"/><rect width="66.25" height="66.25" x="596.25" y="66.25" fill="#46f650"/><rect width="66.25" height="66.25" x="596.25" y="66.25" fill="#1a21f0"/><rect width="66.25" height="66.25" x="662.5" y="66.25" fill="#1b12f8"/><polygon fill="#2f77ac" points="728.75 66.25 728.75 132.5 662.5 132.5"/><rect width="66.25" height="66.25" x="0" y="132.5" fill="#1c08fd"/><rect width="33.13" height="33.13" x="0" y="132.5" fill="#1b1bf3"/><path fill="#2749ce" d="M 0 165.63 A 33.13 33.13 0 0 1 33.13 132.5 L 33.13 165.63"/><rect width="33.13" height="33.13" x="33.13" y="132.5" fill="#3cbe79"/><path fill="#3285a2" d="M 33.13 132.5 A 33.13 33.13 0 0 1 66.26 165.63 L 33.13 165.63"/><rect width="33.13" height="33.13" x="0" y="165.63" fill="#1a20f1"/><path fill="#3cc077" d="M 0 165.63 A 33.13 33.13 0 0 0 33.13 198.76 L 33.13 165.63"/><rect width="33.13" height="33.13" x="33.13" y="165.63" fill="#1b10f9"/><path fill="#44ec58" d="M 33.13 198.76 A 33.13 33.13 0 0 0 66.26 165.63 L 33.13 165.63"/><rect width="66.25" height="66.25" x="66.25" y="132.5" fill="#3287a1"/><path fill="#1b15f6" d="M 66.25 198.75 A 66.25 66.25 0 0 1 132.5 132.5 L 132.5 198.75"/><rect width="66.25" height="66.25" x="132.5" y="132.5" fill="#2b5cc0"/><path fill="#1b1cf3" d="M 132.5 132.5 A 66.25 66.25 0 0 0 198.75 198.75 L 198.75 132.5"/><rect width="66.25" height="66.25" x="198.75" y="132.5" fill="#2126e7"/><rect width="66.25" height="66.25" x="198.75" y="132.5" fill="#192ceb"/><rect width="66.25" height="66.25" x="265" y="132.5" fill="#1c08fd"/><rect width="33.13" height="33.13" x="265" y="132.5" fill="#1f1bef"/><path fill="#222de2" d="M 265 165.63 A 33.13 33.13 0 0 1 298.13 132.5 L 298.13 140.7825 A 24.847500000000004 24.847500000000004 0 0 0 273.2825 165.63"/><rect width="33.13" height="33.13" x="298.13" y="132.5" fill="#1b11f8"/><path fill="#284dcb" d="M 298.13 132.5 A 33.13 33.13 0 0 1 331.26 165.63 L 322.9775 165.63 A 24.847500000000004 24.847500000000004 0 0 0 298.13 140.7825"/><rect width="33.13" height="33.13" x="265" y="165.63" fill="#1936e6"/><path fill="#2745d0" d="M 265 165.63 A 33.13 33.13 0 0 0 298.13 198.76 L 298.13 190.4775 A 24.847500000000004 24.847500000000004 0 0 1 273.2825 165.63"/><rect width="33.13" height="33.13" x="298.13" y="165.63" fill="#1b16f6"/><path fill="#41df61" d="M 298.13 198.76 A 33.13 33.13 0 0 0 331.26 165.63 L 322.9775 165.63 A 24.847500000000004 24.847500000000004 0 0 1 298.13 190.4775"/><rect width="66.25" height="66.25" x="331.25" y="132.5" fill="#1c08fd"/><rect width="33.13" height="33.13" x="331.25" y="132.5" fill="#183ce3"/><path fill="#1b18f5" d="M 331.25 132.5 A 33.13 33.13 0 0 1 364.38 165.63 L 331.25 165.63"/><rect width="33.13" height="33.13" x="364.38" y="132.5" fill="#1b1bf3"/><path fill="#1c0cfb" d="M 364.38 165.63 A 33.13 33.13 0 0 1 397.51 132.5 L 397.51 165.63"/><rect width="33.13" height="33.13" x="331.25" y="165.63" fill="#3bbc7b"/><path fill="#201dee" d="M 331.25 198.76 A 33.13 33.13 0 0 0 364.38 165.63 L 331.25 165.63"/><rect width="33.13" height="33.13" x="364.38" y="165.63" fill="#253bd8"/><path fill="#3cc078" d="M 364.38 165.63 A 33.13 33.13 0 0 0 397.51 198.76 L 397.51 165.63"/><rect width="66.25" height="66.25" x="397.5" y="132.5" fill="#2a58c3"/><path fill="#1c0efa" d="M 397.5 132.5 A 66.25 66.25 0 0 1 463.75 198.75 L 397.5 198.75"/><rect width="66.25" height="66.25" x="463.75" y="132.5" fill="#183be3"/><polygon fill="#1b13f7" points="530 132.5 530 198.75 463.75 198.75"/><rect width="66.25" height="66.25" x="530" y="132.5" fill="#1c08fd"/><rect width="33.13" height="33.13" x="530" y="132.5" fill="#1a26ee"/><polygon fill="#3ece6e" points="563.13 132.5 563.13 165.63 530 165.63"/><rect width="33.13" height="33.13" x="563.13" y="132.5" fill="#42e55d"/><polygon fill="#1a21f0" points="563.13 132.5 596.26 165.63 563.13 165.63"/><rect width="33.13" height="33.13" x="530" y="165.63" fill="#43e65c"/><polygon fill="#1e15f4" points="530 165.63 563.13 165.63 563.13 198.76"/><rect width="33.13" height="33.13" x="563.13" y="165.63" fill="#36a08f"/><polygon fill="#1b18f5" points="563.13 165.63 596.26 165.63 563.13 198.76"/><rect width="66.25" height="66.25" x="596.25" y="132.5" fill="#1b10f9"/><rect width="66.25" height="66.25" x="596.25" y="132.5" fill="#1a24ef"/><rect width="66.25" height="66.25" x="662.5" y="132.5" fill="#1c08fd"/><rect width="33.13" height="33.13" x="662.5" y="132.5" fill="#1e13f5"/><polygon fill="#1a22f0" points="695.63 132.5 695.63 165.63 662.5 165.63"/><rect width="33.13" height="33.13" x="695.63" y="132.5" fill="#46fb4d"/><polygon fill="#183de2" points="695.63 132.5 728.76 165.63 695.63 165.63"/><rect width="33.13" height="33.13" x="662.5" y="165.63" fill="#1b1af4"/><polygon fill="#1a28ed" points="662.5 165.63 695.63 165.63 695.63 198.76"/><rect width="33.13" height="33.13" x="695.63" y="165.63" fill="#2643d2"/><polygon fill="#2331e0" points="695.63 165.63 728.76 165.63 695.63 198.76"/><rect width="66.25" height="66.25" x="0" y="198.75" fill="#3bbc7a"/><polygon fill="#1a2aec" points="0 198.75 66.25 198.75 66.25 265"/><rect width="66.25" height="66.25" x="66.25" y="198.75" fill="#1c0bfb"/><path fill="#45f552" d="M 66.25 265 A 66.25 66.25 0 0 1 132.5 198.75 L 132.5 265"/><rect width="66.25" height="66.25" x="132.5" y="198.75" fill="#222ae5"/><rect width="66.25" height="66.25" x="132.5" y="198.75" fill="#2746d0"/><rect width="66.25" height="66.25" x="198.75" y="198.75" fill="#201fec"/><path fill="#192fe9" d="M 198.75 198.75 A 66.25 66.25 0 0 0 265 265 L 265 198.75"/><rect width="66.25" height="66.25" x="265" y="198.75" fill="#1e13f5"/><polygon fill="#338f9b" points="265 198.75 331.25 265 265 265"/><rect width="66.25" height="66.25" x="331.25" y="198.75" fill="#1c08fd"/><rect width="33.13" height="33.13" x="331.25" y="198.75" fill="#43e75b"/><path fill="#1839e4" d="M 331.25 231.88 A 33.13 33.13 0 0 1 364.38 198.75 L 364.38 207.0325 A 24.847500000000004 24.847500000000004 0 0 0 339.5325 231.88"/><rect width="33.13" height="33.13" x="364.38" y="198.75" fill="#192eea"/><path fill="#183ee1" d="M 364.38 198.75 A 33.13 33.13 0 0 1 397.51 231.88 L 389.2275 231.88 A 24.847500000000004 24.847500000000004 0 0 0 364.38 207.0325"/><rect width="33.13" height="33.13" x="331.25" y="231.88" fill="#40d469"/><path fill="#1a27ed" d="M 331.25 231.88 A 33.13 33.13 0 0 0 364.38 265.01 L 364.38 256.7275 A 24.847500000000004 24.847500000000004 0 0 1 339.5325 231.88"/><rect width="33.13" height="33.13" x="364.38" y="231.88" fill="#1b19f4"/><path fill="#1a28ed" d="M 364.38 265.01 A 33.13 33.13 0 0 0 397.51 231.88 L 389.2275 231.88 A 24.847500000000004 24.847500000000004 0 0 1 364.38 256.7275"/><rect width="66.25" height="66.25" x="397.5" y="198.75" fill="#1c08fd"/><rect width="33.13" height="33.13" x="397.5" y="198.75" fill="#1b19f4"/><path fill="#2c67b8" d="M 397.5 198.75 A 33.13 33.13 0 0 1 430.63 231.88 L 397.5 231.88"/><rect width="33.13" height="33.13" x="430.63" y="198.75" fill="#183ae3"/><path fill="#1c08fd" d="M 430.63 231.88 A 33.13 33.13 0 0 1 463.76 198.75 L 463.76 231.88"/><rect width="33.13" height="33.13" x="397.5" y="231.88" fill="#1e13f5"/><path fill="#1934e7" d="M 397.5 265.01 A 33.13 33.13 0 0 0 430.63 231.88 L 397.5 231.88"/><rect width="33.13" height="33.13" x="430.63" y="231.88" fill="#1c0afc"/><path fill="#1b1cf3" d="M 430.63 231.88 A 33.13 33.13 0 0 0 463.76 265.01 L 463.76 231.88"/><rect width="66.25" height="66.25" x="463.75" y="198.75" fill="#232fe1"/><polygon fill="#47fd4b" points="463.75 198.75 530 265 463.75 265"/><rect width="66.25" height="66.25" x="530" y="198.75" fill="#1931e8"/><path fill="#1a29ec" d="M 530 265 A 66.25 66.25 0 0 1 596.25 198.75 L 530 265 A 66.25 66.25 0 0 0 596.25 198.75"/><rect width="66.25" height="66.25" x="596.25" y="198.75" fill="#44ec58"/><path fill="#192eea" d="M 596.25 198.75 A 66.25 66.25 0 0 1 662.5 265 L 596.25 198.75 A 66.25 66.25 0 0 0 662.5 265"/><rect width="66.25" height="66.25" x="662.5" y="198.75" fill="#2435dd"/><rect width="66.25" height="66.25" x="662.5" y="198.75" fill="#1c0cfb"/><rect width="66.25" height="66.25" x="0" y="265" fill="#1935e6"/><rect width="66.25" height="66.25" x="0" y="265" fill="#1c0afc"/><rect width="66.25" height="66.25" x="66.25" y="265" fill="#192eea"/><rect width="66.25" height="66.25" x="66.25" y="265" fill="#2953c6"/><rect width="66.25" height="66.25" x="132.5" y="265" fill="#1c08fd"/><rect width="33.13" height="33.13" x="132.5" y="265" fill="#1a23ef"/><polygon fill="#1838e4" points="165.63 265 165.63 298.13 132.5 298.13"/><rect width="33.13" height="33.13" x="165.63" y="265" fill="#2d67b8"/><polygon fill="#317fa7" points="165.63 265 198.76 298.13 165.63 298.13"/><rect width="33.13" height="33.13" x="132.5" y="298.13" fill="#1936e5"/><polygon fill="#1b13f7" points="132.5 298.13 165.63 298.13 132.5 331.26"/><rect width="33.13" height="33.13" x="165.63" y="298.13" fill="#42e25f"/><polygon fill="#1a22f0" points="165.63 298.13 198.76 298.13 198.76 331.26"/><rect width="66.25" height="66.25" x="198.75" y="265" fill="#2127e7"/><rect width="66.25" height="66.25" x="198.75" y="265" fill="#1935e6"/><rect width="66.25" height="66.25" x="265" y="265" fill="#1c08fd"/><rect width="33.13" height="33.13" x="265" y="265" fill="#1c09fc"/><polygon fill="#349299" points="298.13 265 298.13 298.13 265 298.13"/><rect width="33.13" height="33.13" x="298.13" y="265" fill="#284dcb"/><polygon fill="#2d69b7" points="298.13 265 331.26 298.13 298.13 298.13"/><rect width="33.13" height="33.13" x="265" y="298.13" fill="#284dcb"/><polygon fill="#1b13f7" points="265 298.13 298.13 298.13 298.13 331.26"/><rect width="33.13" height="33.13" x="298.13" y="298.13" fill="#42e35e"/><polygon fill="#1a29ec" points="298.13 298.13 331.26 298.13 298.13 331.26"/><rect width="66.25" height="66.25" x="331.25" y="265" fill="#183be3"/><polygon fill="#338c9d" points="331.25 265 397.5 265 397.5 331.25"/><rect width="66.25" height="66.25" x="397.5" y="265" fill="#2c62bb"/><rect width="66.25" height="66.25" x="397.5" y="265" fill="#44eb58"/><rect width="66.25" height="66.25" x="463.75" y="265" fill="#1c08fd"/><rect width="33.13" height="33.13" x="463.75" y="265" fill="#1a24ef"/><polygon fill="#1c09fd" points="496.88 265 496.88 298.13 463.75 298.13"/><rect width="33.13" height="33.13" x="496.88" y="265" fill="#1933e7"/><polygon fill="#1a24ef" points="496.88 265 530.01 265 496.88 298.13"/><rect width="33.13" height="33.13" x="463.75" y="298.13" fill="#2b60be"/><polygon fill="#45f253" points="463.75 298.13 496.88 298.13 496.88 331.26"/><rect width="33.13" height="33.13" x="496.88" y="298.13" fill="#1930e9"/><polygon fill="#1c0bfc" points="496.88 298.13 530.01 331.26 496.88 331.26"/><rect width="66.25" height="66.25" x="530" y="265" fill="#1c08fd"/><rect width="33.13" height="33.13" x="530" y="265" fill="#1b1bf3"/><polygon fill="#1932e8" points="563.13 265 563.13 298.13 530 298.13"/><rect width="33.13" height="33.13" x="563.13" y="265" fill="#1934e6"/><polygon fill="#1a1ef2" points="563.13 265 596.26 298.13 563.13 298.13"/><rect width="33.13" height="33.13" x="530" y="298.13" fill="#1c0afc"/><polygon fill="#1a20f1" points="530 298.13 563.13 298.13 563.13 331.26"/><rect width="33.13" height="33.13" x="563.13" y="298.13" fill="#183be3"/><polygon fill="#349399" points="563.13 298.13 596.26 298.13 563.13 331.26"/><rect width="66.25" height="66.25" x="596.25" y="265" fill="#3285a3"/><path fill="#1c09fd" d="M 596.25 265 A 66.25 66.25 0 0 0 662.5 331.25 L 662.5 265"/><rect width="66.25" height="66.25" x="662.5" y="265" fill="#1b1af4"/><polygon fill="#39ae85" points="662.5 265 728.75 265 662.5 331.25"/><rect width="66.25" height="66.25" x="0" y="331.25" fill="#1c0efa"/><polygon fill="#1b1bf3" points="66.25 331.25 66.25 397.5 0 397.5"/><rect width="66.25" height="66.25" x="66.25" y="331.25" fill="#1c08fd"/><rect width="33.13" height="33.13" x="66.25" y="331.25" fill="#3ab67f"/><path fill="#2f78ac" d="M 66.25 331.25 A 33.13 33.13 0 0 1 99.38 364.38 L 66.25 364.38"/><rect width="33.13" height="33.13" x="99.38" y="331.25" fill="#1e14f4"/><path fill="#1c0ffa" d="M 99.38 364.38 A 33.13 33.13 0 0 1 132.51 331.25 L 132.51 364.38"/><rect width="33.13" height="33.13" x="66.25" y="364.38" fill="#1d11f7"/><path fill="#1a23ef" d="M 66.25 397.51 A 33.13 33.13 0 0 0 99.38 364.38 L 66.25 364.38"/><rect width="33.13" height="33.13" x="99.38" y="364.38" fill="#2c61bc"/><path fill="#1b13f7" d="M 99.38 364.38 A 33.13 33.13 0 0 0 132.51 397.51 L 132.51 364.38"/><rect width="66.25" height="66.25" x="132.5" y="331.25" fill="#43eb59"/><path fill="#2640d4" d="M 132.5 331.25 A 66.25 66.25 0 0 1 198.75 397.5 L 132.5 331.25 A 66.25 66.25 0 0 0 198.75 397.5"/><rect width="66.25" height="66.25" x="198.75" y="331.25" fill="#1a21f0"/><path fill="#253dd6" d="M 198.75 331.25 A 66.25 66.25 0 0 0 265 397.5 L 265 331.25"/><rect width="66.25" height="66.25" x="265" y="331.25" fill="#1c08fd"/><rect width="33.13" height="33.13" x="265" y="331.25" fill="#338e9c"/><polygon fill="#2332df" points="298.13 331.25 298.13 364.38 265 364.38"/><rect width="33.13" height="33.13" x="298.13" y="331.25" fill="#1935e6"/><polygon fill="#1a1ff1" points="298.13 331.25 331.26 331.25 298.13 364.38"/><rect width="33.13" height="33.13" x="265" y="364.38" fill="#359994"/><polygon fill="#38ab87" points="265 364.38 298.13 364.38 298.13 397.51"/><rect width="33.13" height="33.13" x="298.13" y="364.38" fill="#2126e8"/><polygon fill="#1c0afc" points="298.13 364.38 331.26 397.51 298.13 397.51"/><rect width="66.25" height="66.25" x="331.25" y="331.25" fill="#1c08fd"/><rect width="33.13" height="33.13" x="331.25" y="331.25" fill="#1f1af0"/><path fill="#1a23ef" d="M 331.25 331.25 A 33.13 33.13 0 0 0 364.38 364.38 L 364.38 331.25"/><rect width="33.13" height="33.13" x="364.38" y="331.25" fill="#1933e7"/><path fill="#1a25ee" d="M 364.38 364.38 A 33.13 33.13 0 0 0 397.51 331.25 L 364.38 331.25"/><rect width="33.13" height="33.13" x="331.25" y="364.38" fill="#47fd4c"/><path fill="#3cbf78" d="M 331.25 397.51 A 33.13 33.13 0 0 1 364.38 364.38 L 364.38 397.51"/><rect width="33.13" height="33.13" x="364.38" y="364.38" fill="#183ee2"/><path fill="#1a1df2" d="M 364.38 364.38 A 33.13 33.13 0 0 1 397.51 397.51 L 364.38 397.51"/><rect width="66.25" height="66.25" x="397.5" y="331.25" fill="#38a78a"/><rect width="66.25" height="66.25" x="397.5" y="331.25" fill="#44f055"/><rect width="66.25" height="66.25" x="463.75" y="331.25" fill="#1a24ef"/><path fill="#3ab77e" d="M 463.75 331.25 A 66.25 66.25 0 0 1 530 397.5 L 463.75 397.5"/><rect width="66.25" height="66.25" x="530" y="331.25" fill="#183ee1"/><polygon fill="#1a27ed" points="530 331.25 596.25 397.5 530 397.5"/><rect width="66.25" height="66.25" x="596.25" y="331.25" fill="#1a20f1"/><rect width="66.25" height="66.25" x="596.25" y="331.25" fill="#1a22f0"/><rect width="66.25" height="66.25" x="662.5" y="331.25" fill="#369e90"/><rect width="66.25" height="66.25" x="662.5" y="331.25" fill="#1c0cfb"/><rect width="66.25" height="66.25" x="0" y="397.5" fill="#1b17f5"/><polygon fill="#192aeb" points="0 397.5 66.25 397.5 66.25 463.75"/><rect width="66.25" height="66.25" x="66.25" y="397.5" fill="#1c08fd"/><rect width="33.13" height="33.13" x="66.25" y="397.5" fill="#46fa4d"/><polygon fill="#2f76ad" points="99.38 397.5 99.38 430.63 66.25 430.63"/><rect width="33.13" height="33.13" x="99.38" y="397.5" fill="#2641d4"/><polygon fill="#41df61" points="99.38 397.5 132.51 430.63 99.38 430.63"/><rect width="33.13" height="33.13" x="66.25" y="430.63" fill="#46fc4c"/><polygon fill="#2438da" points="66.25 430.63 99.38 430.63 99.38 463.76"/><rect width="33.13" height="33.13" x="99.38" y="430.63" fill="#37a28e"/><polygon fill="#40d767" points="99.38 430.63 132.51 430.63 99.38 463.76"/><rect width="66.25" height="66.25" x="132.5" y="397.5" fill="#192fe9"/><path fill="#2b5bc1" d="M 132.5 397.5 A 66.25 66.25 0 0 1 198.75 463.75 L 132.5 463.75"/><rect width="66.25" height="66.25" x="198.75" y="397.5" fill="#1c08fd"/><rect width="33.13" height="33.13" x="198.75" y="397.5" fill="#183ae4"/><path fill="#2746d0" d="M 198.75 430.63 A 33.13 33.13 0 0 1 231.88 397.5 L 231.88 405.7825 A 24.847500000000004 24.847500000000004 0 0 0 207.0325 430.63"/><rect width="33.13" height="33.13" x="231.88" y="397.5" fill="#1a26ee"/><path fill="#192ceb" d="M 231.88 397.5 A 33.13 33.13 0 0 1 265.01 430.63 L 256.7275 430.63 A 24.847500000000004 24.847500000000004 0 0 0 231.88 405.7825"/><rect width="33.13" height="33.13" x="198.75" y="430.63" fill="#2e70b2"/><path fill="#253ad8" d="M 198.75 430.63 A 33.13 33.13 0 0 0 231.88 463.76 L 231.88 455.4775 A 24.847500000000004 24.847500000000004 0 0 1 207.0325 430.63"/><rect width="33.13" height="33.13" x="231.88" y="430.63" fill="#1933e7"/><path fill="#3fd06c" d="M 231.88 463.76 A 33.13 33.13 0 0 0 265.01 430.63 L 256.7275 430.63 A 24.847500000000004 24.847500000000004 0 0 1 231.88 455.4775"/><rect width="66.25" height="66.25" x="265" y="397.5" fill="#1c09fc"/><path fill="#1f1bef" d="M 265 397.5 A 66.25 66.25 0 0 0 331.25 463.75 L 331.25 397.5"/><rect width="66.25" height="66.25" x="331.25" y="397.5" fill="#1c08fd"/><rect width="33.13" height="33.13" x="331.25" y="397.5" fill="#1c0cfb"/><path fill="#192fe9" d="M 331.25 430.63 A 33.13 33.13 0 0 1 364.38 397.5 L 364.38 405.7825 A 24.847500000000004 24.847500000000004 0 0 0 339.5325 430.63"/><rect width="33.13" height="33.13" x="364.38" y="397.5" fill="#369c92"/><path fill="#1f1af0" d="M 364.38 397.5 A 33.13 33.13 0 0 1 397.51 430.63 L 389.2275 430.63 A 24.847500000000004 24.847500000000004 0 0 0 364.38 405.7825"/><rect width="33.13" height="33.13" x="331.25" y="430.63" fill="#1a27ed"/><path fill="#1a1df2" d="M 331.25 430.63 A 33.13 33.13 0 0 0 364.38 463.76 L 364.38 455.4775 A 24.847500000000004 24.847500000000004 0 0 1 339.5325 430.63"/><rect width="33.13" height="33.13" x="364.38" y="430.63" fill="#3289a0"/><path fill="#1a27ed" d="M 364.38 463.76 A 33.13 33.13 0 0 0 397.51 430.63 L 389.2275 430.63 A 24.847500000000004 24.847500000000004 0 0 1 364.38 455.4775"/><rect width="66.25" height="66.25" x="397.5" y="397.5" fill="#39b182"/><rect width="66.25" height="66.25" x="397.5" y="397.5" fill="#183ae4"/><rect width="66.25" height="66.25" x="463.75" y="397.5" fill="#1c08fd"/><rect width="33.13" height="33.13" x="463.75" y="397.5" fill="#284dcb"/><path fill="#192fe9" d="M 463.75 397.5 A 33.13 33.13 0 0 0 496.88 430.63 L 496.88 397.5"/><rect width="33.13" height="33.13" x="496.88" y="397.5" fill="#3181a5"/><path fill="#1c0afc" d="M 496.88 430.63 A 33.13 33.13 0 0 0 530.01 397.5 L 496.88 397.5"/><rect width="33.13" height="33.13" x="463.75" y="430.63" fill="#42e55d"/><path fill="#2d68b7" d="M 463.75 463.76 A 33.13 33.13 0 0 1 496.88 430.63 L 496.88 463.76"/><rect width="33.13" height="33.13" x="496.88" y="430.63" fill="#1a2aec"/><path fill="#1c08fd" d="M 496.88 430.63 A 33.13 33.13 0 0 1 530.01 463.76 L 496.88 463.76"/><rect width="66.25" height="66.25" x="530" y="397.5" fill="#1c08fd"/><rect width="33.13" height="33.13" x="530" y="397.5" fill="#2123ea"/><path fill="#284fca" d="M 530 397.5 A 33.13 33.13 0 0 1 563.13 430.63 L 530 430.63"/><rect width="33.13" height="33.13" x="563.13" y="397.5" fill="#1935e6"/><path fill="#369e91" d="M 563.13 430.63 A 33.13 33.13 0 0 1 596.26 397.5 L 596.26 430.63"/><rect width="33.13" height="33.13" x="530" y="430.63" fill="#1a27ed"/><path fill="#39ae84" d="M 530 463.76 A 33.13 33.13 0 0 0 563.13 430.63 L 530 430.63"/><rect width="33.13" height="33.13" x="563.13" y="430.63" fill="#1b16f6"/><path fill="#1a1ff2" d="M 563.13 430.63 A 33.13 33.13 0 0 0 596.26 463.76 L 596.26 430.63"/><rect width="66.25" height="66.25" x="596.25" y="397.5" fill="#1a26ee"/><path fill="#2435dc" d="M 596.25 397.5 A 66.25 66.25 0 0 1 662.5 463.75 L 596.25 463.75"/><rect width="66.25" height="66.25" x="662.5" y="397.5" fill="#1c08fd"/><rect width="33.13" height="33.13" x="662.5" y="397.5" fill="#2951c8"/><path fill="#2229e5" d="M 662.5 430.63 A 33.13 33.13 0 0 1 695.63 397.5 L 695.63 430.63"/><rect width="33.13" height="33.13" x="695.63" y="397.5" fill="#1c0cfb"/><path fill="#2746d0" d="M 695.63 397.5 A 33.13 33.13 0 0 1 728.76 430.63 L 695.63 430.63"/><rect width="33.13" height="33.13" x="662.5" y="430.63" fill="#1a27ed"/><path fill="#1b13f7" d="M 662.5 430.63 A 33.13 33.13 0 0 0 695.63 463.76 L 695.63 430.63"/><rect width="33.13" height="33.13" x="695.63" y="430.63" fill="#43e55d"/><path fill="#37a58b" d="M 695.63 463.76 A 33.13 33.13 0 0 0 728.76 430.63 L 695.63 430.63"/><rect width="66.25" height="66.25" x="0" y="463.75" fill="#1c08fd"/><rect width="33.13" height="33.13" x="0" y="463.75" fill="#192dea"/><polygon fill="#1b16f6" points="33.13 463.75 33.13 496.88 0 496.88"/><rect width="33.13" height="33.13" x="33.13" y="463.75" fill="#3fcf6c"/><polygon fill="#2020eb" points="33.13 463.75 66.26 496.88 33.13 496.88"/><rect width="33.13" height="33.13" x="0" y="496.88" fill="#1b1bf3"/><polygon fill="#1b12f8" points="0 496.88 33.13 496.88 33.13 530.01"/><rect width="33.13" height="33.13" x="33.13" y="496.88" fill="#1935e6"/><polygon fill="#44f055" points="33.13 496.88 66.26 496.88 33.13 530.01"/><rect width="66.25" height="66.25" x="66.25" y="463.75" fill="#1c08fd"/><rect width="33.13" height="33.13" x="66.25" y="463.75" fill="#34909a"/><polygon fill="#183ce2" points="99.38 463.75 99.38 496.88 66.25 496.88"/><rect width="33.13" height="33.13" x="99.38" y="463.75" fill="#1c0cfb"/><polygon fill="#1c0efa" points="99.38 463.75 132.51 463.75 99.38 496.88"/><rect width="33.13" height="33.13" x="66.25" y="496.88" fill="#284bcd"/><polygon fill="#1a27ed" points="66.25 496.88 99.38 496.88 99.38 530.01"/><rect width="33.13" height="33.13" x="99.38" y="496.88" fill="#2228e6"/><polygon fill="#1938e5" points="99.38 496.88 132.51 530.01 99.38 530.01"/><rect width="66.25" height="66.25" x="132.5" y="463.75" fill="#1c08fd"/><rect width="33.13" height="33.13" x="132.5" y="463.75" fill="#2123ea"/><path fill="#1c0efa" d="M 132.5 463.75 A 33.13 33.13 0 0 0 165.63 496.88 L 165.63 463.75"/><rect width="33.13" height="33.13" x="165.63" y="463.75" fill="#183ae3"/><path fill="#1c0cfb" d="M 165.63 496.88 A 33.13 33.13 0 0 0 198.76 463.75 L 165.63 463.75"/><rect width="33.13" height="33.13" x="132.5" y="496.88" fill="#3dc475"/><path fill="#1b10f9" d="M 132.5 530.01 A 33.13 33.13 0 0 1 165.63 496.88 L 165.63 530.01"/><rect width="33.13" height="33.13" x="165.63" y="496.88" fill="#1a21f0"/><path fill="#1d0ef9" d="M 165.63 496.88 A 33.13 33.13 0 0 1 198.76 530.01 L 165.63 530.01"/><rect width="66.25" height="66.25" x="198.75" y="463.75" fill="#1c0cfb"/><path fill="#1c0efa" d="M 198.75 463.75 A 66.25 66.25 0 0 1 265 530 L 198.75 530"/><rect width="66.25" height="66.25" x="265" y="463.75" fill="#1b19f4"/><rect width="66.25" height="66.25" x="265" y="463.75" fill="#1934e7"/><rect width="66.25" height="66.25" x="331.25" y="463.75" fill="#1c08fd"/><rect width="33.13" height="33.13" x="331.25" y="463.75" fill="#40d569"/><polygon fill="#1a1ff1" points="364.38 463.75 364.38 496.88 331.25 496.88"/><rect width="33.13" height="33.13" x="364.38" y="463.75" fill="#1b1af4"/><polygon fill="#1a29ec" points="364.38 463.75 397.51 496.88 364.38 496.88"/><rect width="33.13" height="33.13" x="331.25" y="496.88" fill="#1c0afc"/><polygon fill="#1b15f6" points="331.25 496.88 364.38 496.88 364.38 530.01"/><rect width="33.13" height="33.13" x="364.38" y="496.88" fill="#2437db"/><polygon fill="#44ee56" points="364.38 496.88 397.51 496.88 364.38 530.01"/><rect width="66.25" height="66.25" x="397.5" y="463.75" fill="#1c08fd"/><rect width="33.13" height="33.13" x="397.5" y="463.75" fill="#3ab282"/><polygon fill="#183ae4" points="430.63 463.75 430.63 496.88 397.5 496.88"/><rect width="33.13" height="33.13" x="430.63" y="463.75" fill="#46f750"/><polygon fill="#2229e5" points="430.63 463.75 463.76 496.88 430.63 496.88"/><rect width="33.13" height="33.13" x="397.5" y="496.88" fill="#1c09fc"/><polygon fill="#43e75b" points="397.5 496.88 430.63 496.88 397.5 530.01"/><rect width="33.13" height="33.13" x="430.63" y="496.88" fill="#1c0bfb"/><polygon fill="#338d9c" points="430.63 496.88 463.76 496.88 463.76 530.01"/><rect width="66.25" height="66.25" x="463.75" y="463.75" fill="#43e85b"/><rect width="66.25" height="66.25" x="463.75" y="463.75" fill="#192dea"/><rect width="66.25" height="66.25" x="530" y="463.75" fill="#1a1ff1"/><path fill="#1b1cf3" d="M 530 530 A 66.25 66.25 0 0 1 596.25 463.75 L 530 530 A 66.25 66.25 0 0 0 596.25 463.75"/><rect width="66.25" height="66.25" x="596.25" y="463.75" fill="#1c08fd"/><rect width="33.13" height="33.13" x="596.25" y="463.75" fill="#1b11f9"/><polygon fill="#1a22f0" points="629.38 463.75 629.38 496.88 596.25 496.88"/><rect width="33.13" height="33.13" x="629.38" y="463.75" fill="#1e15f4"/><polygon fill="#1c09fc" points="629.38 463.75 662.51 496.88 629.38 496.88"/><rect width="33.13" height="33.13" x="596.25" y="496.88" fill="#222de3"/><polygon fill="#1a25ee" points="596.25 496.88 629.38 496.88 629.38 530.01"/><rect width="33.13" height="33.13" x="629.38" y="496.88" fill="#284ccc"/><polygon fill="#201cee" points="629.38 496.88 662.51 496.88 629.38 530.01"/><rect width="66.25" height="66.25" x="662.5" y="463.75" fill="#1c08fd"/><rect width="33.13" height="33.13" x="662.5" y="463.75" fill="#183de2"/><polygon fill="#183fe1" points="695.63 463.75 695.63 496.88 662.5 496.88"/><rect width="33.13" height="33.13" x="695.63" y="463.75" fill="#40d966"/><polygon fill="#1c09fc" points="695.63 463.75 728.76 496.88 695.63 496.88"/><rect width="33.13" height="33.13" x="662.5" y="496.88" fill="#1f1cef"/><polygon fill="#1b1bf4" points="662.5 496.88 695.63 496.88 662.5 530.01"/><rect width="33.13" height="33.13" x="695.63" y="496.88" fill="#284eca"/><polygon fill="#1b1af4" points="695.63 496.88 728.76 496.88 728.76 530.01"/></g></svg>