<?xml version="1.0" standalone="no"?><svg xmlns:xlink="http://www.w3.org/1999/xlink" xmlns="http://www.w3.org/2000/svg" viewBox="0 0 1000 727.2727272727273" preserveAspectRatio="xMaxYMax slice"><g transform="scale(1.3722126929674099)"><rect x="0" y="0" width="728.75" height="530" fill="#1c08fd"/><rect x="0" y="0" width="66.25" height="66.25" fill="#1c08fd"/><rect x="0" y="0" width="33.13" height="33.13" fill="#1a23ef"/><polygon points="33.13,0 33.13,33.13 0,33.13" fill="#2123ea"/><rect x="33.13" y="0" width="33.13" height="33.13" fill="#2954c6"/><polygon points="33.13,0 66.26,0 33.13,33.13" fill="#1a1ef2"/><rect x="0" y="33.13" width="33.13" height="33.13" fill="#2d68b8"/><polygon points="0,33.13 33.13,33.13 33.13,66.26" fill="#1a1ef2"/><rect x="33.13" y="33.13" width="33.13" height="33.13" fill="#1b13f7"/><polygon points="33.13,33.13 66.26,66.26 33.13,66.26" fill="#2953c6"/><rect x="66.25" y="0" width="66.25" height="66.25" fill="#1c08fd"/><rect x="66.25" y="0" width="33.13" height="33.13" fill="#2c61bc"/><path d="M 66.25 33.13 A 33.13 33.13 0 0 1 99.38 0 L 99.38 8.2825 A 24.847500000000004 24.847500000000004 0 0 0 74.5325 33.13" fill="#1931e8"/><rect x="99.38" y="0" width="33.13" height="33.13" fill="#3ab282"/><path d="M 99.38 0 A 33.13 33.13 0 0 1 132.51 33.13 L 124.22749999999999 33.13 A 24.847500000000004 24.847500000000004 0 0 0 99.38 8.2825" fill="#3ab182"/><rect x="66.25" y="33.13" width="33.13" height="33.13" fill="#2f73af"/><path d="M 66.25 33.13 A 33.13 33.13 0 0 0 99.38 66.26 L 99.38 57.977500000000006 A 24.847500000000004 24.847500000000004 0 0 1 74.5325 33.13" fill="#2439da"/><rect x="99.38" y="33.13" width="33.13" height="33.13" fill="#1c0bfc"/><path d="M 99.38 66.26 A 33.13 33.13 0 0 0 132.51 33.13 L 124.22749999999999 33.13 A 24.847500000000004 24.847500000000004 0 0 1 99.38 57.977500000000006" fill="#1c0dfa"/><rect x="132.5" y="0" width="66.25" height="66.25" fill="#192dea"/><path d="M 132.5 66.25 A 66.25 66.25 0 0 1  198.75 0 L 132.5 66.25 A 66.25 66.25 0 0 0 198.75 0" fill="#1c0dfa"/><rect x="198.75" y="0" width="66.25" height="66.25" fill="#183ee1"/><rect x="198.75" y="0" width="66.25" height="66.25" fill="#1b14f7"/><rect x="265" y="0" width="66.25" height="66.25" fill="#1b10f9"/><polygon points="265,0 331.25,66.25 265,66.25" fill="#1a1ef2"/><rect x="331.25" y="0" width="66.25" height="66.25" fill="#2438db"/><polygon points="331.25,0 397.5,0 397.5,66.25" fill="#232ee1"/><rect x="397.5" y="0" width="66.25" height="66.25" fill="#2539d9"/><rect x="397.5" y="0" width="66.25" height="66.25" fill="#1933e7"/><rect x="463.75" y="0" width="66.25" height="66.25" fill="#3bb87d"/><rect x="463.75" y="0" width="66.25" height="66.25" fill="#183fe1"/><rect x="530" y="0" width="66.25" height="66.25" fill="#1c08fd"/><rect x="530" y="0" width="33.13" height="33.13" fill="#1931e8"/><polygon points="563.13,0 563.13,33.13 530,33.13" fill="#3287a1"/><rect x="563.13" y="0" width="33.13" height="33.13" fill="#1c0afc"/><polygon points="563.13,0 596.26,0 563.13,33.13" fill="#1b12f8"/><rect x="530" y="33.13" width="33.13" height="33.13" fill="#253cd8"/><polygon points="530,33.13 563.13,33.13 563.13,66.26" fill="#3fd469"/><rect x="563.13" y="33.13" width="33.13" height="33.13" fill="#1b1cf3"/><polygon points="563.13,33.13 596.26,66.26 563.13,66.26" fill="#43e65c"/><rect x="596.25" y="0" width="66.25" height="66.25" fill="#1c08fd"/><rect x="596.25" y="0" width="33.13" height="33.13" fill="#1b1cf3"/><path d="M 596.25 33.13 A 33.13 33.13 0 0 1  629.38 0 L 629.38 33.13" fill="#1930e9"/><rect x="629.38" y="0" width="33.13" height="33.13" fill="#369b93"/><path d="M 629.38 0 A 33.13 33.13 0 0 1 662.51 33.13 L 629.38 33.13" fill="#1f17f2"/><rect x="596.25" y="33.13" width="33.13" height="33.13" fill="#38a988"/><path d="M 596.25 33.13 A 33.13 33.13 0 0 0 629.38 66.26 L 629.38 33.13" fill="#41db64"/><rect x="629.38" y="33.13" width="33.13" height="33.13" fill="#1b18f5"/><path d="M 629.38 66.26 A 33.13 33.13 0 0 0 662.51 33.13 L 629.38 33.13" fill="#46f750"/><rect x="662.5" y="0" width="66.25" height="66.25" fill="#1c08fd"/><rect x="662.5" y="0" width="33.13" height="33.13" fill="#348f9b"/><polygon points="695.63,0 695.63,33.13 662.5,33.13" fill="#192ceb"/><rect x="695.63" y="0" width="33.13" height="33.13" fill="#1c0ffa"/><polygon points="695.63,0 728.76,0 695.63,33.13" fill="#39ac86"/><rect x="662.5" y="33.13" width="33.13" height="33.13" fill="#2f77ac"/><polygon points="662.5,33.13 695.63,33.13 695.63,66.26" fill="#1a23ef"/><rect x="695.63" y="33.13" width="33.13" height="33.13" fill="#38ac86"/><polygon points="695.63,33.13 728.76,66.26 695.63,66.26" fill="#1f1cee"/><rect x="0" y="66.25" width="66.25" height="66.25" fill="#1c08fd"/><rect x="0" y="66.25" width="33.13" height="33.13" fill="#2437db"/><path d="M 0 99.38 A 33.13 33.13 0 0 0 33.13 66.25 L 0 66.25" fill="#349497"/><rect x="33.13" y="66.25" width="33.13" height="33.13" fill="#307ca9"/><path d="M 33.13 66.25 A 33.13 33.13 0 0 0 66.26 99.38 L 66.26 66.25" fill="#1b15f6"/><rect x="0" y="99.38" width="33.13" height="33.13" fill="#1c0cfb"/><path d="M 0 99.38 A 33.13 33.13 0 0 1 33.13 132.51 L 0 132.51" fill="#1a1ef2"/><rect x="33.13" y="99.38" width="33.13" height="33.13" fill="#38a988"/><path d="M 33.13 132.51 A 33.13 33.13 0 0 1  66.26 99.38 L 66.26 132.51" fill="#3fcf6d"/><rect x="66.25" y="66.25" width="66.25" height="66.25" fill="#1a29ec"/><path d="M 66.25 132.5 A 66.25 66.25 0 0 0 132.5 66.25 L 66.25 66.25" fill="#1936e6"/><rect x="132.5" y="66.25" width="66.25" height="66.25" fill="#1c08fd"/><rect x="132.5" y="66.25" width="33.13" height="33.13" fill="#2124e8"/><polygon points="165.63,66.25 165.63,99.38 132.5,99.38" fill="#192ceb"/><rect x="165.63" y="66.25" width="33.13" height="33.13" fill="#2e6fb3"/><polygon points="165.63,66.25 198.76,66.25 165.63,99.38" fill="#1c0cfb"/><rect x="132.5" y="99.38" width="33.13" height="33.13" fill="#37a58b"/><polygon points="132.5,99.38 165.63,99.38 165.63,132.51" fill="#1f1cef"/><rect x="165.63" y="99.38" width="33.13" height="33.13" fill="#42e35e"/><polygon points="165.63,99.38 198.76,132.51 165.63,132.51" fill="#1935e6"/><rect x="198.75" y="66.25" width="66.25" height="66.25" fill="#1e14f5"/><rect x="198.75" y="66.25" width="66.25" height="66.25" fill="#1938e5"/><rect x="265" y="66.25" width="66.25" height="66.25" fill="#1c08fd"/><rect x="265" y="66.25" width="33.13" height="33.13" fill="#2e70b2"/><path d="M 265 99.38 A 33.13 33.13 0 0 0 298.13 66.25 L 265 66.25" fill="#2438da"/><rect x="298.13" y="66.25" width="33.13" height="33.13" fill="#1a24ef"/><path d="M 298.13 66.25 A 33.13 33.13 0 0 0 331.26 99.38 L 331.26 66.25" fill="#1f1bef"/><rect x="265" y="99.38" width="33.13" height="33.13" fill="#1c0afc"/><path d="M 265 99.38 A 33.13 33.13 0 0 1 298.13 132.51 L 265 132.51" fill="#1936e6"/><rect x="298.13" y="99.38" width="33.13" height="33.13" fill="#2d68b8"/><path d="M 298.13 132.51 A 33.13 33.13 0 0 1  331.26 99.38 L 331.26 132.51" fill="#1b15f7"/><rect x="331.25" y="66.25" width="66.25" height="66.25" fill="#1c08fd"/><rect x="331.25" y="66.25" width="33.13" height="33.13" fill="#183de2"/><path d="M 331.25 66.25 A 33.13 33.13 0 0 1 364.38 99.38 L 331.25 99.38" fill="#307da8"/><rect x="364.38" y="66.25" width="33.13" height="33.13" fill="#183de2"/><path d="M 364.38 99.38 A 33.13 33.13 0 0 1  397.51 66.25 L 397.51 99.38" fill="#192fe9"/><rect x="331.25" y="99.38" width="33.13" height="33.13" fill="#1f18f2"/><path d="M 331.25 132.51 A 33.13 33.13 0 0 0 364.38 99.38 L 331.25 99.38" fill="#1c09fd"/><rect x="364.38" y="99.38" width="33.13" height="33.13" fill="#1c09fd"/><path d="M 364.38 99.38 A 33.13 33.13 0 0 0 397.51 132.51 L 397.51 99.38" fill="#1f16f3"/><rect x="397.5" y="66.25" width="66.25" height="66.25" fill="#1c08fd"/><rect x="397.5" y="66.25" width="33.13" height="33.13" fill="#37a18e"/><polygon points="430.63,66.25 430.63,99.38 397.5,99.38" fill="#1932e8"/><rect x="430.63" y="66.25" width="33.13" height="33.13" fill="#1a2aec"/><polygon points="430.63,66.25 463.76,99.38 430.63,99.38" fill="#192beb"/><rect x="397.5" y="99.38" width="33.13" height="33.13" fill="#2a5bc1"/><polygon points="397.5,99.38 430.63,99.38 430.63,132.51" fill="#192eea"/><rect x="430.63" y="99.38" width="33.13" height="33.13" fill="#1c0afc"/><polygon points="430.63,99.38 463.76,99.38 430.63,132.51" fill="#192beb"/><rect x="463.75" y="66.25" width="66.25" height="66.25" fill="#1c08fd"/><rect x="463.75" y="66.25" width="33.13" height="33.13" fill="#1b1cf3"/><path d="M 463.75 99.38 A 33.13 33.13 0 0 0 496.88 66.25 L 463.75 66.25" fill="#1937e5"/><rect x="496.88" y="66.25" width="33.13" height="33.13" fill="#1935e6"/><path d="M 496.88 66.25 A 33.13 33.13 0 0 0 530.01 99.38 L 530.01 66.25" fill="#2953c6"/><rect x="463.75" y="99.38" width="33.13" height="33.13" fill="#1b1af4"/><path d="M 463.75 99.38 A 33.13 33.13 0 0 1 496.88 132.51 L 463.75 132.51" fill="#1b1af4"/><rect x="496.88" y="99.38" width="33.13" height="33.13" fill="#43ea59"/><path d="M 496.88 132.51 A 33.13 33.13 0 0 1  530.01 99.38 L 530.01 132.51" fill="#2435dc"/><rect x="530" y="66.25" width="66.25" height="66.25" fill="#36a08f"/><path d="M 530 66.25 A 66.25 66.25 0 0 0 596.25 132.5 L 596.25 66.25" fill="#2c63bb"/><rect x="596.25" y="66.25" width="66.25" height="66.25" fill="#46f650"/><rect x="596.25" y="66.25" width="66.25" height="66.25" fill="#1a21f0"/><rect x="662.5" y="66.25" width="66.25" height="66.25" fill="#1b12f8"/><polygon points="728.75,66.25 728.75,132.5 662.5,132.5" fill="#2f77ac"/><rect x="0" y="132.5" width="66.25" height="66.25" fill="#1c08fd"/><rect x="0" y="132.5" width="33.13" height="33.13" fill="#1b1bf3"/><path d="M 0 165.63 A 33.13 33.13 0 0 1  33.13 132.5 L 33.13 165.63" fill="#2749ce"/><rect x="33.13" y="132.5" width="33.13" height="33.13" fill="#3cbe79"/><path d="M 33.13 132.5 A 33.13 33.13 0 0 1 66.26 165.63 L 33.13 165.63" fill="#3285a2"/><rect x="0" y="165.63" width="33.13" height="33.13" fill="#1a20f1"/><path d="M 0 165.63 A 33.13 33.13 0 0 0 33.13 198.76 L 33.13 165.63" fill="#3cc077"/><rect x="33.13" y="165.63" width="33.13" height="33.13" fill="#1b10f9"/><path d="M 33.13 198.76 A 33.13 33.13 0 0 0 66.26 165.63 L 33.13 165.63" fill="#44ec58"/><rect x="66.25" y="132.5" width="66.25" height="66.25" fill="#3287a1"/><path d="M 66.25 198.75 A 66.25 66.25 0 0 1  132.5 132.5 L 132.5 198.75" fill="#1b15f6"/><rect x="132.5" y="132.5" width="66.25" height="66.25" fill="#2b5cc0"/><path d="M 132.5 132.5 A 66.25 66.25 0 0 0 198.75 198.75 L 198.75 132.5" fill="#1b1cf3"/><rect x="198.75" y="132.5" width="66.25" height="66.25" fill="#2126e7"/><rect x="198.75" y="132.5" width="66.25" height="66.25" fill="#192ceb"/><rect x="265" y="132.5" width="66.25" height="66.25" fill="#1c08fd"/><rect x="265" y="132.5" width="33.13" height="33.13" fill="#1f1bef"/><path d="M 265 165.63 A 33.13 33.13 0 0 1 298.13 132.5 L 298.13 140.7825 A 24.847500000000004 24.847500000000004 0 0 0 273.2825 165.63" fill="#222de2"/><rect x="298.13" y="132.5" width="33.13" height="33.13" fill="#1b11f8"/><path d="M 298.13 132.5 A 33.13 33.13 0 0 1 331.26 165.63 L 322.9775 165.63 A 24.847500000000004 24.847500000000004 0 0 0 298.13 140.7825" fill="#284dcb"/><rect x="265" y="165.63" width="33.13" height="33.13" fill="#1936e6"/><path d="M 265 165.63 A 33.13 33.13 0 0 0 298.13 198.76 L 298.13 190.4775 A 24.847500000000004 24.847500000000004 0 0 1 273.2825 165.63" fill="#2745d0"/><rect x="298.13" y="165.63" width="33.13" height="33.13" fill="#1b16f6"/><path d="M 298.13 198.76 A 33.13 33.13 0 0 0 331.26 165.63 L 322.9775 165.63 A 24.847500000000004 24.847500000000004 0 0 1 298.13 190.4775" fill="#41df61"/><rect x="331.25" y="132.5" width="66.25" height="66.25" fill="#1c08fd"/><rect x="331.25" y="132.5" width="33.13" height="33.13" fill="#183ce3"/><path d="M 331.25 132.5 A 33.13 33.13 0 0 1 364.38 165.63 L 331.25 165.63" fill="#1b18f5"/><rect x="364.38" y="132.5" width="33.13" height="33.13" fill="#1b1bf3"/><path d="M 364.38 165.63 A 33.13 33.13 0 0 1  397.51 132.5 L 397.51 165.63" fill="#1c0cfb"/><rect x="331.25" y="165.63" width="33.13" height="33.13" fill="#3bbc7b"/><path d="M 331.25 198.76 A 33.13 33.13 0 0 0 364.38 165.63 L 331.25 165.63" fill="#201dee"/><rect x="364.38" y="165.63" width="33.13" height="33.13" fill="#253bd8"/><path d="M 364.38 165.63 A 33.13 33.13 0 0 0 397.51 198.76 L 397.51 165.63" fill="#3cc078"/><rect x="397.5" y="132.5" width="66.25" height="66.25" fill="#2a58c3"/><path d="M 397.5 132.5 A 66.25 66.25 0 0 1 463.75 198.75 L 397.5 198.75" fill="#1c0efa"/><rect x="463.75" y="132.5" width="66.25" height="66.25" fill="#183be3"/><polygon points="530,132.5 530,198.75 463.75,198.75" fill="#1b13f7"/><rect x="530" y="132.5" width="66.25" height="66.25" fill="#1c08fd"/><rect x="530" y="132.5" width="33.13" height="33.13" fill="#1a26ee"/><polygon points="563.13,132.5 563.13,165.63 530,165.63" fill="#3ece6e"/><rect x="563.13" y="132.5" width="33.13" height="33.13" fill="#42e55d"/><polygon points="563.13,132.5 596.26,165.63 563.13,165.63" fill="#1a21f0"/><rect x="530" y="165.63" width="33.13" height="33.13" fill="#43e65c"/><polygon points="530,165.63 563.13,165.63 563.13,198.76" fill="#1e15f4"/><rect x="563.13" y="165.63" width="33.13" height="33.13" fill="#36a08f"/><polygon points="563.13,165.63 596.26,165.63 563.13,198.76" fill="#1b18f5"/><rect x="596.25" y="132.5" width="66.25" height="66.25" fill="#1b10f9"/><rect x="596.25" y="132.5" width="66.25" height="66.25" fill="#1a24ef"/><rect x="662.5" y="132.5" width="66.25" height="66.25" fill="#1c08fd"/><rect x="662.5" y="132.5" width="33.13" height="33.13" fill="#1e13f5"/><polygon points="695.63,132.5 695.63,165.63 662.5,165.63" fill="#1a22f0"/><rect x="695.63" y="132.5" width="33.13" height="33.13" fill="#46fb4d"/><polygon points="695.63,132.5 728.76,165.63 695.63,165.63" fill="#183de2"/><rect x="662.5" y="165.63" width="33.13" height="33.13" fill="#1b1af4"/><polygon points="662.5,165.63 695.63,165.63 695.63,198.76" fill="#1a28ed"/><rect x="695.63" y="165.63" width="33.13" height="33.13" fill="#2643d2"/><polygon points="695.63,165.63 728.76,165.63 695.63,198.76" fill="#2331e0"/><rect x="0" y="198.75" width="66.25" height="66.25" fill="#3bbc7a"/><polygon points="0,198.75 66.25,198.75 66.25,265" fill="#1a2aec"/><rect x="66.25" y="198.75" width="66.25" height="66.25" fill="#1c0bfb"/><path d="M 66.25 265 A 66.25 66.25 0 0 1  132.5 198.75 L 132.5 265" fill="#45f552"/><rect x="132.5" y="198.75" width="66.25" height="66.25" fill="#222ae5"/><rect x="132.5" y="198.75" width="66.25" height="66.25" fill="#2746d0"/><rect x="198.75" y="198.75" width="66.25" height="66.25" fill="#201fec"/><path d="M 198.75 198.75 A 66.25 66.25 0 0 0 265 265 L 265 198.75" fill="#192fe9"/><rect x="265" y="198.75" width="66.25" height="66.25" fill="#1e13f5"/><polygon points="265,198.75 331.25,265 265,265" fill="#338f9b"/><rect x="331.25" y="198.75" width="66.25" height="66.25" fill="#1c08fd"/><rect x="331.25" y="198.75" width="33.13" height="33.13" fill="#43e75b"/><path d="M 331.25 231.88 A 33.13 33.13 0 0 1 364.38 198.75 L 364.38 207.0325 A 24.847500000000004 24.847500000000004 0 0 0 339.5325 231.88" fill="#1839e4"/><rect x="364.38" y="198.75" width="33.13" height="33.13" fill="#192eea"/><path d="M 364.38 198.75 A 33.13 33.13 0 0 1 397.51 231.88 L 389.2275 231.88 A 24.847500000000004 24.847500000000004 0 0 0 364.38 207.0325" fill="#183ee1"/><rect x="331.25" y="231.88" width="33.13" height="33.13" fill="#40d469"/><path d="M 331.25 231.88 A 33.13 33.13 0 0 0 364.38 265.01 L 364.38 256.7275 A 24.847500000000004 24.847500000000004 0 0 1 339.5325 231.88" fill="#1a27ed"/><rect x="364.38" y="231.88" width="33.13" height="33.13" fill="#1b19f4"/><path d="M 364.38 265.01 A 33.13 33.13 0 0 0 397.51 231.88 L 389.2275 231.88 A 24.847500000000004 24.847500000000004 0 0 1 364.38 256.7275" fill="#1a28ed"/><rect x="397.5" y="198.75" width="66.25" height="66.25" fill="#1c08fd"/><rect x="397.5" y="198.75" width="33.13" height="33.13" fill="#1b19f4"/><path d="M 397.5 198.75 A 33.13 33.13 0 0 1 430.63 231.88 L 397.5 231.88" fill="#2c67b8"/><rect x="430.63" y="198.75" width="33.13" height="33.13" fill="#183ae3"/><path d="M 430.63 231.88 A 33.13 33.13 0 0 1  463.76 198.75 L 463.76 231.88" fill="#1c08fd"/><rect x="397.5" y="231.88" width="33.13" height="33.13" fill="#1e13f5"/><path d="M 397.5 265.01 A 33.13 33.13 0 0 0 430.63 231.88 L 397.5 231.88" fill="#1934e7"/><rect x="430.63" y="231.88" width="33.13" height="33.13" fill="#1c0afc"/><path d="M 430.63 231.88 A 33.13 33.13 0 0 0 463.76 265.01 L 463.76 231.88" fill="#1b1cf3"/><rect x="463.75" y="198.75" width="66.25" height="66.25" fill="#232fe1"/><polygon points="463.75,198.75 530,265 463.75,265" fill="#47fd4b"/><rect x="530" y="198.75" width="66.25" height="66.25" fill="#1931e8"/><path d="M 530 265 A 66.25 66.25 0 0 1  596.25 198.75 L 530 265 A 66.25 66.25 0 0 0 596.25 198.75" fill="#1a29ec"/><rect x="596.25" y="198.75" width="66.25" height="66.25" fill="#44ec58"/><path d="M 596.25 198.75 A 66.25 66.25 0 0 1  662.5 265 L 596.25 198.75 A 66.25 66.25 0 0 0 662.5 265" fill="#192eea"/><rect x="662.5" y="198.75" width="66.25" height="66.25" fill="#2435dd"/><rect x="662.5" y="198.75" width="66.25" height="66.25" fill="#1c0cfb"/><rect x="0" y="265" width="66.25" height="66.25" fill="#1935e6"/><rect x="0" y="265" width="66.25" height="66.25" fill="#1c0afc"/><rect x="66.25" y="265" width="66.25" height="66.25" fill="#192eea"/><rect x="66.25" y="265" width="66.25" height="66.25" fill="#2953c6"/><rect x="132.5" y="265" width="66.25" height="66.25" fill="#1c08fd"/><rect x="132.5" y="265" width="33.13" height="33.13" fill="#1a23ef"/><polygon points="165.63,265 165.63,298.13 132.5,298.13" fill="#1838e4"/><rect x="165.63" y="265" width="33.13" height="33.13" fill="#2d67b8"/><polygon points="165.63,265 198.76,298.13 165.63,298.13" fill="#317fa7"/><rect x="132.5" y="298.13" width="33.13" height="33.13" fill="#1936e5"/><polygon points="132.5,298.13 165.63,298.13 132.5,331.26" fill="#1b13f7"/><rect x="165.63" y="298.13" width="33.13" height="33.13" fill="#42e25f"/><polygon points="165.63,298.13 198.76,298.13 198.76,331.26" fill="#1a22f0"/><rect x="198.75" y="265" width="66.25" height="66.25" fill="#2127e7"/><rect x="198.75" y="265" width="66.25" height="66.25" fill="#1935e6"/><rect x="265" y="265" width="66.25" height="66.25" fill="#1c08fd"/><rect x="265" y="265" width="33.13" height="33.13" fill="#1c09fc"/><polygon points="298.13,265 298.13,298.13 265,298.13" fill="#349299"/><rect x="298.13" y="265" width="33.13" height="33.13" fill="#284dcb"/><polygon points="298.13,265 331.26,298.13 298.13,298.13" fill="#2d69b7"/><rect x="265" y="298.13" width="33.13" height="33.13" fill="#284dcb"/><polygon points="265,298.13 298.13,298.13 298.13,331.26" fill="#1b13f7"/><rect x="298.13" y="298.13" width="33.13" height="33.13" fill="#42e35e"/><polygon points="298.13,298.13 331.26,298.13 298.13,331.26" fill="#1a29ec"/><rect x="331.25" y="265" width="66.25" height="66.25" fill="#183be3"/><polygon points="331.25,265 397.5,265 397.5,331.25" fill="#338c9d"/><rect x="397.5" y="265" width="66.25" height="66.25" fill="#2c62bb"/><rect x="397.5" y="265" width="66.25" height="66.25" fill="#44eb58"/><rect x="463.75" y="265" width="66.25" height="66.25" fill="#1c08fd"/><rect x="463.75" y="265" width="33.13" height="33.13" fill="#1a24ef"/><polygon points="496.88,265 496.88,298.13 463.75,298.13" fill="#1c09fd"/><rect x="496.88" y="265" width="33.13" height="33.13" fill="#1933e7"/><polygon points="496.88,265 530.01,265 496.88,298.13" fill="#1a24ef"/><rect x="463.75" y="298.13" width="33.13" height="33.13" fill="#2b60be"/><polygon points="463.75,298.13 496.88,298.13 496.88,331.26" fill="#45f253"/><rect x="496.88" y="298.13" width="33.13" height="33.13" fill="#1930e9"/><polygon points="496.88,298.13 530.01,331.26 496.88,331.26" fill="#1c0bfc"/><rect x="530" y="265" width="66.25" height="66.25" fill="#1c08fd"/><rect x="530" y="265" width="33.13" height="33.13" fill="#1b1bf3"/><polygon points="563.13,265 563.13,298.13 530,298.13" fill="#1932e8"/><rect x="563.13" y="265" width="33.13" height="33.13" fill="#1934e6"/><polygon points="563.13,265 596.26,298.13 563.13,298.13" fill="#1a1ef2"/><rect x="530" y="298.13" width="33.13" height="33.13" fill="#1c0afc"/><polygon points="530,298.13 563.13,298.13 563.13,331.26" fill="#1a20f1"/><rect x="563.13" y="298.13" width="33.13" height="33.13" fill="#183be3"/><polygon points="563.13,298.13 596.26,298.13 563.13,331.26" fill="#349399"/><rect x="596.25" y="265" width="66.25" height="66.25" fill="#3285a3"/><path d="M 596.25 265 A 66.25 66.25 0 0 0 662.5 331.25 L 662.5 265" fill="#1c09fd"/><rect x="662.5" y="265" width="66.25" height="66.25" fill="#1b1af4"/><polygon points="662.5,265 728.75,265 662.5,331.25" fill="#39ae85"/><rect x="0" y="331.25" width="66.25" height="66.25" fill="#1c0efa"/><polygon points="66.25,331.25 66.25,397.5 0,397.5" fill="#1b1bf3"/><rect x="66.25" y="331.25" width="66.25" height="66.25" fill="#1c08fd"/><rect x="66.25" y="331.25" width="33.13" height="33.13" fill="#3ab67f"/><path d="M 66.25 331.25 A 33.13 33.13 0 0 1 99.38 364.38 L 66.25 364.38" fill="#2f78ac"/><rect x="99.38" y="331.25" width="33.13" height="33.13" fill="#1e14f4"/><path d="M 99.38 364.38 A 33.13 33.13 0 0 1  132.51 331.25 L 132.51 364.38" fill="#1c0ffa"/><rect x="66.25" y="364.38" width="33.13" height="33.13" fill="#1d11f7"/><path d="M 66.25 397.51 A 33.13 33.13 0 0 0 99.38 364.38 L 66.25 364.38" fill="#1a23ef"/><rect x="99.38" y="364.38" width="33.13" height="33.13" fill="#2c61bc"/><path d="M 99.38 364.38 A 33.13 33.13 0 0 0 132.51 397.51 L 132.51 364.38" fill="#1b13f7"/><rect x="132.5" y="331.25" width="66.25" height="66.25" fill="#43eb59"/><path d="M 132.5 331.25 A 66.25 66.25 0 0 1  198.75 397.5 L 132.5 331.25 A 66.25 66.25 0 0 0 198.75 397.5" fill="#2640d4"/><rect x="198.75" y="331.25" width="66.25" height="66.25" fill="#1a21f0"/><path d="M 198.75 331.25 A 66.25 66.25 0 0 0 265 397.5 L 265 331.25" fill="#253dd6"/><rect x="265" y="331.25" width="66.25" height="66.25" fill="#1c08fd"/><rect x="265" y="331.25" width="33.13" height="33.13" fill="#338e9c"/><polygon points="298.13,331.25 298.13,364.38 265,364.38" fill="#2332df"/><rect x="298.13" y="331.25" width="33.13" height="33.13" fill="#1935e6"/><polygon points="298.13,331.25 331.26,331.25 298.13,364.38" fill="#1a1ff1"/><rect x="265" y="364.38" width="33.13" height="33.13" fill="#359994"/><polygon points="265,364.38 298.13,364.38 298.13,397.51" fill="#38ab87"/><rect x="298.13" y="364.38" width="33.13" height="33.13" fill="#2126e8"/><polygon points="298.13,364.38 331.26,397.51 298.13,397.51" fill="#1c0afc"/><rect x="331.25" y="331.25" width="66.25" height="66.25" fill="#1c08fd"/><rect x="331.25" y="331.25" width="33.13" height="33.13" fill="#1f1af0"/><path d="M 331.25 331.25 A 33.13 33.13 0 0 0 364.38 364.38 L 364.38 331.25" fill="#1a23ef"/><rect x="364.38" y="331.25" width="33.13" height="33.13" fill="#1933e7"/><path d="M 364.38 364.38 A 33.13 33.13 0 0 0 397.51 331.25 L 364.38 331.25" fill="#1a25ee"/><rect x="331.25" y="364.38" width="33.13" height="33.13" fill="#47fd4c"/><path d="M 331.25 397.51 A 33.13 33.13 0 0 1  364.38 364.38 L 364.38 397.51" fill="#3cbf78"/><rect x="364.38" y="364.38" width="33.13" height="33.13" fill="#183ee2"/><path d="M 364.38 364.38 A 33.13 33.13 0 0 1 397.51 397.51 L 364.38 397.51" fill="#1a1df2"/><rect x="397.5" y="331.25" width="66.25" height="66.25" fill="#38a78a"/><rect x="397.5" y="331.25" width="66.25" height="66.25" fill="#44f055"/><rect x="463.75" y="331.25" width="66.25" height="66.25" fill="#1a24ef"/><path d="M 463.75 331.25 A 66.25 66.25 0 0 1 530 397.5 L 463.75 397.5" fill="#3ab77e"/><rect x="530" y="331.25" width="66.25" height="66.25" fill="#183ee1"/><polygon points="530,331.25 596.25,397.5 530,397.5" fill="#1a27ed"/><rect x="596.25" y="331.25" width="66.25" height="66.25" fill="#1a20f1"/><rect x="596.25" y="331.25" width="66.25" height="66.25" fill="#1a22f0"/><rect x="662.5" y="331.25" width="66.25" height="66.25" fill="#369e90"/><rect x="662.5" y="331.25" width="66.25" height="66.25" fill="#1c0cfb"/><rect x="0" y="397.5" width="66.25" height="66.25" fill="#1b17f5"/><polygon points="0,397.5 66.25,397.5 66.25,463.75" fill="#192aeb"/><rect x="66.25" y="397.5" width="66.25" height="66.25" fill="#1c08fd"/><rect x="66.25" y="397.5" width="33.13" height="33.13" fill="#46fa4d"/><polygon points="99.38,397.5 99.38,430.63 66.25,430.63" fill="#2f76ad"/><rect x="99.38" y="397.5" width="33.13" height="33.13" fill="#2641d4"/><polygon points="99.38,397.5 132.51,430.63 99.38,430.63" fill="#41df61"/><rect x="66.25" y="430.63" width="33.13" height="33.13" fill="#46fc4c"/><polygon points="66.25,430.63 99.38,430.63 99.38,463.76" fill="#2438da"/><rect x="99.38" y="430.63" width="33.13" height="33.13" fill="#37a28e"/><polygon points="99.38,430.63 132.51,430.63 99.38,463.76" fill="#40d767"/><rect x="132.5" y="397.5" width="66.25" height="66.25" fill="#192fe9"/><path d="M 132.5 397.5 A 66.25 66.25 0 0 1 198.75 463.75 L 132.5 463.75" fill="#2b5bc1"/><rect x="198.75" y="397.5" width="66.25" height="66.25" fill="#1c08fd"/><rect x="198.75" y="397.5" width="33.13" height="33.13" fill="#183ae4"/><path d="M 198.75 430.63 A 33.13 33.13 0 0 1 231.88 397.5 L 231.88 405.7825 A 24.847500000000004 24.847500000000004 0 0 0 207.0325 430.63" fill="#2746d0"/><rect x="231.88" y="397.5" width="33.13" height="33.13" fill="#1a26ee"/><path d="M 231.88 397.5 A 33.13 33.13 0 0 1 265.01 430.63 L 256.7275 430.63 A 24.847500000000004 24.847500000000004 0 0 0 231.88 405.7825" fill="#192ceb"/><rect x="198.75" y="430.63" width="33.13" height="33.13" fill="#2e70b2"/><path d="M 198.75 430.63 A 33.13 33.13 0 0 0 231.88 463.76 L 231.88 455.4775 A 24.847500000000004 24.847500000000004 0 0 1 207.0325 430.63" fill="#253ad8"/><rect x="231.88" y="430.63" width="33.13" height="33.13" fill="#1933e7"/><path d="M 231.88 463.76 A 33.13 33.13 0 0 0 265.01 430.63 L 256.7275 430.63 A 24.847500000000004 24.847500000000004 0 0 1 231.88 455.4775" fill="#3fd06c"/><rect x="265" y="397.5" width="66.25" height="66.25" fill="#1c09fc"/><path d="M 265 397.5 A 66.25 66.25 0 0 0 331.25 463.75 L 331.25 397.5" fill="#1f1bef"/><rect x="331.25" y="397.5" width="66.25" height="66.25" fill="#1c08fd"/><rect x="331.25" y="397.5" width="33.13" height="33.13" fill="#1c0cfb"/><path d="M 331.25 430.63 A 33.13 33.13 0 0 1 364.38 397.5 L 364.38 405.7825 A 24.847500000000004 24.847500000000004 0 0 0 339.5325 430.63" fill="#192fe9"/><rect x="364.38" y="397.5" width="33.13" height="33.13" fill="#369c92"/><path d="M 364.38 397.5 A 33.13 33.13 0 0 1 397.51 430.63 L 389.2275 430.63 A 24.847500000000004 24.847500000000004 0 0 0 364.38 405.7825" fill="#1f1af0"/><rect x="331.25" y="430.63" width="33.13" height="33.13" fill="#1a27ed"/><path d="M 331.25 430.63 A 33.13 33.13 0 0 0 364.38 463.76 L 364.38 455.4775 A 24.847500000000004 24.847500000000004 0 0 1 339.5325 430.63" fill="#1a1df2"/><rect x="364.38" y="430.63" width="33.13" height="33.13" fill="#3289a0"/><path d="M 364.38 463.76 A 33.13 33.13 0 0 0 397.51 430.63 L 389.2275 430.63 A 24.847500000000004 24.847500000000004 0 0 1 364.38 455.4775" fill="#1a27ed"/><rect x="397.5" y="397.5" width="66.25" height="66.25" fill="#39b182"/><rect x="397.5" y="397.5" width="66.25" height="66.25" fill="#183ae4"/><rect x="463.75" y="397.5" width="66.25" height="66.25" fill="#1c08fd"/><rect x="463.75" y="397.5" width="33.13" height="33.13" fill="#284dcb"/><path d="M 463.75 397.5 A 33.13 33.13 0 0 0 496.88 430.63 L 496.88 397.5" fill="#192fe9"/><rect x="496.88" y="397.5" width="33.13" height="33.13" fill="#3181a5"/><path d="M 496.88 430.63 A 33.13 33.13 0 0 0 530.01 397.5 L 496.88 397.5" fill="#1c0afc"/><rect x="463.75" y="430.63" width="33.13" height="33.13" fill="#42e55d"/><path d="M 463.75 463.76 A 33.13 33.13 0 0 1  496.88 430.63 L 496.88 463.76" fill="#2d68b7"/><rect x="496.88" y="430.63" width="33.13" height="33.13" fill="#1a2aec"/><path d="M 496.88 430.63 A 33.13 33.13 0 0 1 530.01 463.76 L 496.88 463.76" fill="#1c08fd"/><rect x="530" y="397.5" width="66.25" height="66.25" fill="#1c08fd"/><rect x="530" y="397.5" width="33.13" height="33.13" fill="#2123ea"/><path d="M 530 397.5 A 33.13 33.13 0 0 1 563.13 430.63 L 530 430.63" fill="#284fca"/><rect x="563.13" y="397.5" width="33.13" height="33.13" fill="#1935e6"/><path d="M 563.13 430.63 A 33.13 33.13 0 0 1  596.26 397.5 L 596.26 430.63" fill="#369e91"/><rect x="530" y="430.63" width="33.13" height="33.13" fill="#1a27ed"/><path d="M 530 463.76 A 33.13 33.13 0 0 0 563.13 430.63 L 530 430.63" fill="#39ae84"/><rect x="563.13" y="430.63" width="33.13" height="33.13" fill="#1b16f6"/><path d="M 563.13 430.63 A 33.13 33.13 0 0 0 596.26 463.76 L 596.26 430.63" fill="#1a1ff2"/><rect x="596.25" y="397.5" width="66.25" height="66.25" fill="#1a26ee"/><path d="M 596.25 397.5 A 66.25 66.25 0 0 1 662.5 463.75 L 596.25 463.75" fill="#2435dc"/><rect x="662.5" y="397.5" width="66.25" height="66.25" fill="#1c08fd"/><rect x="662.5" y="397.5" width="33.13" height="33.13" fill="#2951c8"/><path d="M 662.5 430.63 A 33.13 33.13 0 0 1  695.63 397.5 L 695.63 430.63" fill="#2229e5"/><rect x="695.63" y="397.5" width="33.13" height="33.13" fill="#1c0cfb"/><path d="M 695.63 397.5 A 33.13 33.13 0 0 1 728.76 430.63 L 695.63 430.63" fill="#2746d0"/><rect x="662.5" y="430.63" width="33.13" height="33.13" fill="#1a27ed"/><path d="M 662.5 430.63 A 33.13 33.13 0 0 0 695.63 463.76 L 695.63 430.63" fill="#1b13f7"/><rect x="695.63" y="430.63" width="33.13" height="33.13" fill="#43e55d"/><path d="M 695.63 463.76 A 33.13 33.13 0 0 0 728.76 430.63 L 695.63 430.63" fill="#37a58b"/><rect x="0" y="463.75" width="66.25" height="66.25" fill="#1c08fd"/><rect x="0" y="463.75" width="33.13" height="33.13" fill="#192dea"/><polygon points="33.13,463.75 33.13,496.88 0,496.88" fill="#1b16f6"/><rect x="33.13" y="463.75" width="33.13" height="33.13" fill="#3fcf6c"/><polygon points="33.13,463.75 66.26,496.88 33.13,496.88" fill="#2020eb"/><rect x="0" y="496.88" width="33.13" height="33.13" fill="#1b1bf3"/><polygon points="0,496.88 33.13,496.88 33.13,530.01" fill="#1b12f8"/><rect x="33.13" y="496.88" width="33.13" height="33.13" fill="#1935e6"/><polygon points="33.13,496.88 66.26,496.88 33.13,530.01" fill="#44f055"/><rect x="66.25" y="463.75" width="66.25" height="66.25" fill="#1c08fd"/><rect x="66.25" y="463.75" width="33.13" height="33.13" fill="#34909a"/><polygon points="99.38,463.75 99.38,496.88 66.25,496.88" fill="#183ce2"/><rect x="99.38" y="463.75" width="33.13" height="33.13" fill="#1c0cfb"/><polygon points="99.38,463.75 132.51,463.75 99.38,496.88" fill="#1c0efa"/><rect x="66.25" y="496.88" width="33.13" height="33.13" fill="#284bcd"/><polygon points="66.25,496.88 99.38,496.88 99.38,530.01" fill="#1a27ed"/><rect x="99.38" y="496.88" width="33.13" height="33.13" fill="#2228e6"/><polygon points="99.38,496.88 132.51,530.01 99.38,530.01" fill="#1938e5"/><rect x="132.5" y="463.75" width="66.25" height="66.25" fill="#1c08fd"/><rect x="132.5" y="463.75" width="33.13" height="33.13" fill="#2123ea"/><path d="M 132.5 463.75 A 33.13 33.13 0 0 0 165.63 496.88 L 165.63 463.75" fill="#1c0efa"/><rect x="165.63" y="463.75" width="33.13" height="33.13" fill="#183ae3"/><path d="M 165.63 496.88 A 33.13 33.13 0 0 0 198.76 463.75 L 165.63 463.75" fill="#1c0cfb"/><rect x="132.5" y="496.88" width="33.13" height="33.13" fill="#3dc475"/><path d="M 132.5 530.01 A 33.13 33.13 0 0 1  165.63 496.88 L 165.63 530.01" fill="#1b10f9"/><rect x="165.63" y="496.88" width="33.13" height="33.13" fill="#1a21f0"/><path d="M 165.63 496.88 A 33.13 33.13 0 0 1 198.76 530.01 L 165.63 530.01" fill="#1d0ef9"/><rect x="198.75" y="463.75" width="66.25" height="66.25" fill="#1c0cfb"/><path d="M 198.75 463.75 A 66.25 66.25 0 0 1 265 530 L 198.75 530" fill="#1c0efa"/><rect x="265" y="463.75" width="66.25" height="66.25" fill="#1b19f4"/><rect x="265" y="463.75" width="66.25" height="66.25" fill="#1934e7"/><rect x="331.25" y="463.75" width="66.25" height="66.25" fill="#1c08fd"/><rect x="331.25" y="463.75" width="33.13" height="33.13" fill="#40d569"/><polygon points="364.38,463.75 364.38,496.88 331.25,496.88" fill="#1a1ff1"/><rect x="364.38" y="463.75" width="33.13" height="33.13" fill="#1b1af4"/><polygon points="364.38,463.75 397.51,496.88 364.38,496.88" fill="#1a29ec"/><rect x="331.25" y="496.88" width="33.13" height="33.13" fill="#1c0afc"/><polygon points="331.25,496.88 364.38,496.88 364.38,530.01" fill="#1b15f6"/><rect x="364.38" y="496.88" width="33.13" height="33.13" fill="#2437db"/><polygon points="364.38,496.88 397.51,496.88 364.38,530.01" fill="#44ee56"/><rect x="397.5" y="463.75" width="66.25" height="66.25" fill="#1c08fd"/><rect x="397.5" y="463.75" width="33.13" height="33.13" fill="#3ab282"/><polygon points="430.63,463.75 430.63,496.88 397.5,496.88" fill="#183ae4"/><rect x="430.63" y="463.75" width="33.13" height="33.13" fill="#46f750"/><polygon points="430.63,463.75 463.76,496.88 430.63,496.88" fill="#2229e5"/><rect x="397.5" y="496.88" width="33.13" height="33.13" fill="#1c09fc"/><polygon points="397.5,496.88 430.63,496.88 397.5,530.01" fill="#43e75b"/><rect x="430.63" y="496.88" width="33.13" height="33.13" fill="#1c0bfb"/><polygon points="430.63,496.88 463.76,496.88 463.76,530.01" fill="#338d9c"/><rect x="463.75" y="463.75" width="66.25" height="66.25" fill="#43e85b"/><rect x="463.75" y="463.75" width="66.25" height="66.25" fill="#192dea"/><rect x="530" y="463.75" width="66.25" height="66.25" fill="#1a1ff1"/><path d="M 530 530 A 66.25 66.25 0 0 1  596.25 463.75 L 530 530 A 66.25 66.25 0 0 0 596.25 463.75" fill="#1b1cf3"/><rect x="596.25" y="463.75" width="66.25" height="66.25" fill="#1c08fd"/><rect x="596.25" y="463.75" width="33.13" height="33.13" fill="#1b11f9"/><polygon points="629.38,463.75 629.38,496.88 596.25,496.88" fill="#1a22f0"/><rect x="629.38" y="463.75" width="33.13" height="33.13" fill="#1e15f4"/><polygon points="629.38,463.75 662.51,496.88 629.38,496.88" fill="#1c09fc"/><rect x="596.25" y="496.88" width="33.13" height="33.13" fill="#222de3"/><polygon points="596.25,496.88 629.38,496.88 629.38,530.01" fill="#1a25ee"/><rect x="629.38" y="496.88" width="33.13" height="33.13" fill="#284ccc"/><polygon points="629.38,496.88 662.51,496.88 629.38,530.01" fill="#201cee"/><rect x="662.5" y="463.75" width="66.25" height="66.25" fill="#1c08fd"/><rect x="662.5" y="463.75" width="33.13" height="33.13" fill="#183de2"/><polygon points="695.63,463.75 695.63,496.88 662.5,496.88" fill="#183fe1"/><rect x="695.63" y="463.75" width="33.13" height="33.13" fill="#40d966"/><polygon points="695.63,463.75 728.76,496.88 695.63,496.88" fill="#1c09fc"/><rect x="662.5" y="496.88" width="33.13" height="33.13" fill="#1f1cef"/><polygon points="662.5,496.88 695.63,496.88 662.5,530.01" fill="#1b1bf4"/><rect x="695.63" y="496.88" width="33.13" height="33.13" fill="#284eca"/><polygon points="695.63,496.88 728.76,496.88 728.76,530.01" fill="#1b1af4"/></g></svg>